PathFileType  4	(X/Y/Z) C:\Users\hpl\Documents\MyRepositories\mocap-processing\Data\treadmill\running\
DataRate	CameraRate	NumFrames	NumMarkers	Units	OrigDataRate	OrigDataStartFrame	OrigNumFrames
  200.0		  200.0		    6		     46		 mm	  200.0	      197	    785
Frame#	Time	r_knee			r_shank_antsup			r_ankle			r_calc			r_5meta			r_toe			L_knee			L_shank_antsup			L_ankle			L_calc			L_5meta			L_toe			r_sh2			r_sh3			r_sh4			L_sh2			L_sh3			r_thigh1			r_thigh2			r_thigh3			r_thigh4			r_thigh5			L_thigh1			L_thigh2			L_thigh3			L_thigh4			r.ASIS			r.PSIS			L.ASIS			L.PSIS			C7			R_Shoulder			L_Shoulder			Sternum			R_humerus			R_elbow_med			R_elbow_lat			R_forearm			R_wrist_radius			R_wrist_ulna			L_humerus			L_elbow_med			L_elbow_lat			L_forearm			L_wrist_radius			L_wrist_ulna			
		X1	Y1	Z1	X2	Y2	Z2	X3	Y3	Z3	X4	Y4	Z4	X5	Y5	Z5	X6	Y6	Z6	X7	Y7	Z7	X8	Y8	Z8	X9	Y9	Z9	X10	Y10	Z10	X11	Y11	Z11	X12	Y12	Z12	X13	Y13	Z13	X14	Y14	Z14	X15	Y15	Z15	X16	Y16	Z16	X17	Y17	Z17	X18	Y18	Z18	X19	Y19	Z19	X20	Y20	Z20	X21	Y21	Z21	X22	Y22	Z22	X23	Y23	Z23	X24	Y24	Z24	X25	Y25	Z25	X26	Y26	Z26	X27	Y27	Z27	X28	Y28	Z28	X29	Y29	Z29	X30	Y30	Z30	X31	Y31	Z31	X32	Y32	Z32	X33	Y33	Z33	X34	Y34	Z34	X35	Y35	Z35	X36	Y36	Z36	X37	Y37	Z37	X38	Y38	Z38	X39	Y39	Z39	X40	Y40	Z40	X41	Y41	Z41	X42	Y42	Z42	X43	Y43	Z43	X44	Y44	Z44	X45	Y45	Z45	X46	Y46	Z46	

197	0.98000	1056.478	150.050	634.060	1020.999	153.674	518.684	781.916	211.104	290.378	710.651	280.032	314.148	815.650	176.950	157.530	873.187	230.427	152.685	607.444	456.969	521.860	556.062	459.172	409.671	331.149	401.214	185.436	276.926	343.067	194.665	409.187	420.877	44.533	454.738	357.672	48.120	942.726	169.610	429.560	963.974	140.633	563.629	883.136	165.735	485.147	489.479	460.972	470.731	417.876	438.905	373.563	990.488	136.348	859.708	1060.814	154.820	770.410	1052.066	130.349	719.159	914.104	95.208	787.356	987.663	125.962	699.324	773.860	466.899	703.872	714.579	440.365	579.713	667.772	496.750	749.309	614.844	464.014	624.112	860.233	162.022	1010.556	656.886	238.400	1067.952	851.633	434.082	1000.827	650.526	350.327	1054.517	790.489	336.249	1549.341	780.522	138.310	1528.631	877.272	503.169	1505.332	934.957	290.921	1437.968	638.671	62.459	1370.895	500.730	135.119	1308.349	501.927	54.189	1348.027	604.838	25.483	1201.300	661.159	20.261	1101.246	615.334	2.163	1085.621	814.892	597.009	1271.932	693.689	570.954	1170.203	738.741	647.646	1210.557	884.347	583.423	1150.864	961.556	499.964	1158.239	959.946	533.896	1094.517
198	0.98500	1056.439	149.795	637.449	1026.897	153.424	520.126	802.646	210.715	278.358	730.325	283.294	297.928	843.450	178.021	147.612	901.429	231.322	146.310	596.261	456.384	530.625	542.980	459.673	419.315	320.283	404.283	192.167	267.722	344.894	205.437	389.795	421.666	45.798	434.816	358.195	48.829	954.243	169.879	426.536	967.268	141.118	561.780	891.442	166.917	478.536	476.440	459.834	480.303	405.328	438.005	382.943	991.406	135.274	863.454	1061.774	154.303	775.024	1052.788	130.410	723.409	914.489	95.748	790.966	988.559	126.699	703.378	768.976	465.245	707.308	706.374	438.269	584.767	664.679	497.013	754.811	608.024	464.158	631.355	861.158	161.805	1014.338	658.381	238.748	1071.320	854.053	433.471	1004.518	652.411	350.778	1057.940	790.156	335.945	1552.525	778.907	138.179	1532.354	877.598	501.559	1509.908	934.530	289.102	1442.685	636.047	62.346	1376.679	498.270	137.743	1314.879	498.964	56.611	1354.581	601.389	27.304	1208.157	657.517	21.551	1107.854	611.549	3.553	1092.251	817.052	595.546	1276.766	695.329	570.229	1174.577	741.032	646.810	1215.135	886.543	580.668	1158.251	962.935	496.672	1167.268	962.631	529.990	1103.448
199	0.99000	1055.641	149.738	639.962	1032.465	153.262	521.045	823.025	212.334	266.459	750.249	285.428	282.039	871.097	179.884	138.272	929.739	232.105	140.744	585.947	455.719	539.384	530.513	460.730	429.053	310.968	407.398	199.263	259.751	347.421	216.825	370.062	422.341	47.624	415.723	359.176	50.040	965.279	169.982	423.372	970.349	141.769	559.108	899.815	168.246	471.564	464.123	458.550	489.965	393.786	437.241	392.118	991.998	133.377	867.145	1062.392	153.425	778.658	1052.727	130.958	726.535	914.545	96.217	794.144	988.688	127.620	706.632	764.360	463.498	710.920	698.263	436.381	589.900	661.355	497.229	760.174	601.857	463.588	638.681	862.056	161.674	1018.009	659.586	239.334	1074.833	856.435	432.746	1008.203	654.302	351.098	1061.474	789.686	333.604	1555.986	777.277	138.057	1535.926	877.778	499.966	1514.372	934.109	287.382	1447.283	633.283	65.061	1381.897	496.353	140.235	1321.272	496.187	59.093	1360.971	598.378	29.122	1214.770	654.115	22.947	1114.035	607.980	5.169	1098.504	819.250	594.038	1281.448	697.305	569.277	1179.163	743.230	645.850	1219.645	888.561	578.081	1165.573	964.045	493.222	1176.026	964.983	526.277	1112.083
200	0.99500	1054.635	149.871	641.862	1037.662	153.281	521.254	843.725	213.628	254.995	770.546	287.386	266.351	899.117	181.229	129.755	957.878	232.509	135.994	576.333	454.647	548.171	519.585	459.716	439.320	301.943	410.778	206.702	252.679	350.435	228.700	351.476	423.249	50.860	397.467	360.131	51.853	976.507	170.194	420.018	973.366	142.238	555.701	908.238	169.013	464.421	452.542	457.333	499.715	382.912	436.723	401.372	992.344	132.735	869.960	1062.495	152.320	781.253	1052.190	131.294	728.919	914.175	96.782	796.699	988.028	128.361	709.246	759.998	462.432	714.230	690.827	434.991	595.015	658.720	497.326	765.948	596.095	462.744	645.812	862.729	161.531	1021.569	660.784	239.991	1078.108	858.796	432.014	1011.732	656.099	351.579	1064.797	789.391	332.227	1559.099	775.836	138.018	1539.290	877.821	498.279	1518.536	933.795	285.709	1451.640	631.085	65.676	1387.067	494.471	142.512	1327.534	493.746	61.552	1366.786	595.454	30.749	1220.909	651.125	24.309	1119.951	605.018	6.666	1104.492	821.271	592.579	1285.985	698.484	568.829	1183.552	745.102	645.364	1224.140	890.102	575.573	1172.710	964.788	490.094	1184.482	967.104	522.727	1120.503
201	1.00000	1053.284	150.217	643.130	1042.407	153.411	521.069	864.650	214.947	243.860	791.007	288.864	251.117	927.441	182.144	122.277	986.114	233.339	132.394	567.985	453.108	556.438	509.343	460.603	448.649	293.459	414.118	215.129	245.718	353.700	240.958	333.630	424.181	55.620	379.389	361.345	54.595	987.307	170.357	416.506	976.180	142.283	551.706	916.662	169.903	456.733	442.824	455.908	508.978	373.290	436.373	410.212	992.747	132.243	871.980	1062.104	151.128	782.689	1050.983	131.673	730.275	913.332	97.496	798.768	986.869	129.427	711.047	755.862	461.542	717.651	684.406	433.382	600.158	655.649	497.242	771.382	590.217	461.502	653.395	863.586	161.595	1024.790	662.032	240.607	1081.385	860.888	431.201	1015.164	657.831	351.608	1068.214	789.048	331.057	1561.884	774.651	137.736	1542.480	877.910	496.535	1522.670	933.347	284.221	1455.554	629.149	65.781	1392.291	493.282	144.647	1333.235	491.600	63.556	1372.487	592.925	32.173	1226.657	648.609	25.602	1125.407	602.183	8.092	1110.053	823.465	591.827	1290.029	699.532	568.538	1187.830	746.774	644.779	1228.529	891.403	573.230	1179.511	965.144	487.115	1192.264	968.669	519.301	1128.565
202	1.00500	1051.802	150.629	643.777	1046.776	153.163	520.536	885.509	216.053	233.213	811.937	290.387	236.187	955.775	182.864	115.704	1013.721	234.223	129.532	560.893	451.429	564.019	501.032	460.043	457.384	284.730	416.790	224.222	238.405	357.035	253.519	316.499	425.266	61.665	362.488	362.363	57.991	997.841	170.677	412.895	978.840	142.304	547.220	925.102	170.198	448.920	434.591	454.856	518.070	364.473	436.982	418.905	992.768	131.456	873.204	1061.216	150.606	782.867	1049.332	132.036	730.638	912.196	98.274	800.330	984.994	130.302	712.089	752.180	460.842	720.763	678.494	433.149	604.506	653.336	496.697	776.798	585.480	459.937	660.230	864.404	161.603	1027.917	663.147	241.179	1084.603	862.824	430.587	1018.174	659.466	351.823	1071.406	788.694	329.881	1564.493	773.669	137.548	1545.304	877.826	494.894	1526.479	933.085	282.719	1459.270	627.350	66.092	1397.005	492.077	146.782	1338.618	489.794	65.644	1377.587	590.407	33.496	1232.040	646.565	26.723	1130.473	599.939	9.480	1115.087	825.156	590.431	1294.139	700.385	568.271	1191.944	748.426	644.353	1232.727	892.447	571.044	1186.124	965.560	484.191	1199.813	969.789	515.990	1136.195
